<?xml version="1.0" encoding="UTF-8"?>
<svg version="1.1" xmlns="http://www.w3.org/2000/svg" width="2628" height="2628">
<path d="M0 0 C1.37605415 -0.00645288 2.75210703 -0.01318292 4.12815857 -0.02017212 C6.99994068 -0.03206741 9.87160325 -0.03586131 12.7434082 -0.03466797 C15.64958724 -0.03450592 18.55513254 -0.04832445 21.46118164 -0.07568359 C43.8942631 -0.28362983 63.24701967 1.09135669 83.55859375 11.3359375 C85.12867188 12.12097656 85.12867188 12.12097656 86.73046875 12.921875 C110.20316644 25.65177719 126.85353118 48.04055996 134.55859375 73.3359375 C137.47003266 83.90845684 138.71131807 94.01380159 138.68164158 104.94062042 C138.68279542 105.98988937 138.68394927 107.03915831 138.68513808 108.12022328 C138.68778808 111.64140344 138.68329585 115.162538 138.67884827 118.68371582 C138.6792843 121.2314974 138.68015979 123.77927893 138.68143743 126.32706022 C138.68320846 131.86899038 138.6818722 137.41090638 138.67779922 142.95283508 C138.67175972 151.19345513 138.67146384 159.4340684 138.67234121 167.67469025 C138.67365465 181.53728437 138.67031545 195.39987371 138.66432381 209.26246643 C138.65840661 222.98800175 138.65455782 236.71353507 138.65347099 250.43907166 C138.65340225 251.29251135 138.65333351 252.14595105 138.65326269 253.02525256 C138.65292436 257.35944856 138.65262297 261.69364456 138.65233582 266.02784055 C138.65023545 296.72624401 138.64349823 327.42464488 138.6340332 358.12304688 C138.62484872 387.9459634 138.61776513 417.76887922 138.61352539 447.59179688 C138.61339386 448.51108311 138.61326234 449.43036934 138.61312683 450.37751273 C138.61180831 459.60937012 138.61053249 468.84122752 138.60928797 478.07308492 C138.60675176 496.87941179 138.60393051 515.68573862 138.60093689 534.49206543 C138.60073095 535.78908972 138.60073095 535.78908972 138.60052086 537.11231651 C138.59132033 594.85352459 138.57545434 652.59473121 138.55859375 710.3359375 C218.70211632 718.89690905 301.73279595 725.7225921 480.27007858 673.51955229 C492.39344241 663.539758 503.62416796 652.69517691 514.64453125 641.5234375 C515.48414528 640.67535916 516.32375931 639.82728082 517.18881619 638.95350313 C538.50664897 617.35999871 558.3267106 594.60397301 577.68995023 571.25894833 C588.88250672 557.79333785 600.44081339 544.72323485 612.29101562 531.83349609 C613.13992651 530.90989182 613.9888374 529.98628755 614.86347286 529.03469527 C619.1314922 524.39516547 623.40586994 519.7615506 627.68365932 515.13102913 C635.98226301 506.14524987 644.24129102 497.12338959 652.48062134 488.08325195 C653.275197 487.21150625 654.06977266 486.33976054 654.88842638 485.4415983 C673.9846367 464.4633179 692.49770124 442.98216067 710.78742685 421.29893309 C713.0912452 418.5693947 715.40138005 415.84523821 717.71184571 413.12132609 C719.25221507 411.29838185 720.78095852 409.46619864 722.30890977 407.63284588 C728.13820002 400.70882265 734.3643933 394.85983813 741.55859375 389.3359375 C743.14541499 388.02765655 744.72925023 386.71573578 746.30859375 385.3984375 C794.06676406 347.71020698 856.95576566 332.74419635 916.93359375 339.5234375 C975.375931 346.82215818 1022.12046347 374.49380915 1063.046875 415.55859375 C1064.48475121 416.99511769 1065.92292375 418.43134508 1067.3613739 419.86729431 C1070.35036958 422.85336794 1073.33578645 425.84295994 1076.31860352 428.83520508 C1080.11511968 432.64314516 1083.92059056 436.44198975 1087.72878742 440.23824406 C1090.69148371 443.19366885 1093.64934567 446.15389526 1096.60582542 449.11553764 C1098.00639904 450.51743155 1099.40842117 451.91788006 1100.812006 453.31675911 C1144.09308785 496.48441356 1171.69395114 553.30784609 1171.88818359 615.1730957 C1171.88436164 616.76904856 1171.87862832 618.36499785 1171.87109375 619.9609375 C1171.8689386 620.78943207 1171.86678345 621.61792664 1171.86456299 622.4715271 C1171.68260806 666.25692936 1159.60410438 710.9647414 1134.55859375 747.3359375 C1134.04313146 748.10046895 1133.52766916 748.8650004 1132.9965868 749.65269947 C1125.53376724 760.15671547 1116.35441504 768.96180404 1107.25073242 778.03198242 C1105.39322614 779.8935594 1103.53631206 781.7557107 1101.68008423 783.61856079 C1097.18442533 788.12747837 1092.68079374 792.62834774 1088.1741369 797.1262702 C1084.51277704 800.78082943 1080.85438678 804.43833725 1077.19805336 808.09792519 C1076.67588439 808.62055386 1076.15371541 809.14318253 1075.61572314 809.68164844 C1074.55476019 810.74357062 1073.49380394 811.80549951 1072.43285433 812.86743502 C1062.51427588 822.79454252 1052.58656697 832.71247779 1042.65564916 842.62723909 C1034.13507291 851.13438281 1025.62243674 859.64940534 1017.11547852 868.17016602 C1007.22152381 878.08016615 997.32273349 887.98529432 987.41614324 897.8826645 C986.36077432 898.9370778 985.30541166 899.99149735 984.25005531 901.04592323 C983.73085621 901.56465951 983.21165711 902.08339579 982.6767247 902.61785134 C979.01786185 906.27412354 975.36249222 909.93386587 971.70845604 913.59496117 C966.79812099 918.51457454 961.87991623 923.42620001 956.95625687 928.33247757 C955.14763326 930.13712307 953.34157872 931.94434737 951.53824425 933.75427818 C949.08375212 936.21692222 946.62028187 938.67021099 944.15422058 941.1212616 C943.4366218 941.84555255 942.71902301 942.5698435 941.97967881 943.31608266 C941.31890314 943.96903508 940.65812747 944.62198751 939.9773283 945.29472637 C939.4095887 945.86197892 938.84184909 946.42923147 938.25690526 947.01367348 C934.73428873 949.756297 930.9365493 949.46053505 926.61594009 949.45898533 C925.39227084 949.46097638 924.16860159 949.46296743 922.90785146 949.46501881 C921.54796279 949.46216578 920.18807432 949.45922018 918.82818604 949.45619202 C917.38517829 949.45662798 915.94217063 949.45750335 914.49916339 949.45878118 C910.52904144 949.46102121 906.55894637 949.45701154 902.58882785 949.45200312 C898.30937624 949.44769179 894.02992619 949.44914553 889.75047302 949.4499054 C882.3344105 949.4504302 874.91835676 949.44728797 867.50229645 949.44166756 C856.77986757 949.43354663 846.05744295 949.43093673 835.33501133 949.42967957 C817.93932155 949.42748998 800.54363646 949.42083242 783.14794922 949.41137695 C766.24788435 949.40220042 749.34782076 949.39512077 732.44775391 949.39086914 C730.88563806 949.39047506 730.88563806 949.39047506 729.29196432 949.39007301 C724.067606 949.38876799 718.84324767 949.38750428 713.61888933 949.38626111 C670.26545423 949.3758914 626.91202423 949.35827562 583.55859375 949.3359375 C585.01817913 945.9805674 586.86722833 943.7735301 589.44239426 941.18928146 C590.25779073 940.3662027 591.07318719 939.54312395 591.91329265 938.69510341 C592.81385615 937.79627287 593.71441965 936.89744234 594.64227295 935.97137451 C595.60534445 935.00313485 596.56798568 934.03446706 597.53023267 933.06540799 C600.17756861 930.40193638 602.83115375 927.74476803 605.48583031 925.08861542 C608.34700391 922.2237401 611.202467 919.35318232 614.05874634 916.48342896 C620.30531833 910.20969542 626.55943825 903.94352262 632.81519985 897.67895412 C636.71964291 893.76898707 640.6226083 889.85754729 644.5253067 885.94583893 C655.32710977 875.11965443 666.13080081 864.29536188 676.94141769 853.47797775 C677.63325911 852.7856972 678.32510053 852.09341665 679.03790684 851.3801579 C679.73141571 850.68621247 680.42492459 849.99226705 681.13944888 849.27729297 C682.54479193 847.87106298 683.95013188 846.46482991 685.35546875 845.05859375 C686.05256774 844.3610519 686.74966673 843.66351005 687.46788993 842.94483057 C698.77170608 831.63311255 710.06194494 820.3079459 721.34641346 808.97692999 C732.92693124 797.34902901 744.5186251 785.73236876 756.12169194 774.12696767 C762.63835165 767.60847231 769.15006579 761.08519915 775.64949799 754.5495224 C781.18185991 748.98641797 786.72431547 743.43362683 792.28034303 737.89415357 C795.11605766 735.06627241 797.94664507 732.23370676 800.764431 729.3879509 C803.34251225 726.78451341 805.93396453 724.19522511 808.53690973 721.61665359 C809.92430498 720.23506239 811.29687755 718.83863581 812.66892123 717.44179797 C813.49474869 716.6291502 814.32057615 715.81650243 815.17142868 714.97922897 C815.87890267 714.27056081 816.58637666 713.56189264 817.31528926 712.83174968 C820.25126651 710.87407049 822.09122031 710.98969088 825.55859375 711.3359375 C827.94080127 712.06212224 830.296268 712.88044132 832.62109375 713.7734375 C847.28997633 719.36385855 863.95622335 719.29680851 878.55859375 713.3359375 C897.33953953 704.90635021 910.18996264 691.59862911 917.55859375 672.3359375 C923.47024896 654.41550818 922.82720296 636.49244957 914.98828125 619.16796875 C905.82661853 601.01986636 891.66249907 589.06452294 872.55859375 582.3359375 C856.85177534 577.38016548 840.45870709 579.07316742 825.5390625 585.7578125 C807.01786691 595.56457923 794.77135152 610.28804689 788.55859375 630.3359375 C784.11026557 644.94518373 785.59656255 662.11461203 791.75390625 676.0390625 C792.72061212 678.79839771 792.58930745 679.62748002 791.55859375 682.3359375 C789.73339814 684.5371806 789.73339814 684.5371806 787.29249859 686.97955608 C786.36639111 687.9134868 785.44028364 688.84741752 784.4861123 689.80964917 C783.44650002 690.84277482 782.40674649 691.87575836 781.36686707 692.90861511 C780.27102053 694.00791655 779.17582912 695.10787139 778.08123952 696.20842439 C775.06515363 699.23707288 772.03973373 702.25624589 769.01272905 705.27397621 C765.75231842 708.52761819 762.5005288 711.78985632 759.24763489 715.05101013 C752.87131097 721.44069695 746.48687466 727.82221857 740.09952518 734.20088192 C734.91005521 739.38358579 729.72350979 744.56919938 724.53905678 749.75692177 C723.80210107 750.49433718 723.06514536 751.23175258 722.30585766 751.99151391 C720.80891339 753.48941732 719.31197588 754.98732748 717.81504504 756.48524431 C703.76710399 770.54174675 689.70997022 784.58902714 675.64969633 798.63319192 C663.57692252 810.69256188 651.51203623 822.75977606 639.45288086 834.83276367 C625.4600922 848.84159493 611.46246488 862.84556181 597.45704347 876.84176427 C595.96454868 878.33330338 594.47206017 879.82484878 592.97957802 881.31640053 C592.24518252 882.0503332 591.51078703 882.78426586 590.75413712 883.54043892 C585.5710059 888.72097629 580.39137146 893.90499419 575.21306419 899.09035301 C568.90518023 905.40663751 562.5920064 911.71757616 556.2719216 918.02165338 C553.0454287 921.24024407 549.82141416 924.46121966 546.60381699 927.68870544 C543.66109975 930.64032974 540.71160574 933.58499675 537.75643686 936.52415291 C536.68581559 937.59140942 535.61774354 938.66123025 534.55243113 939.73378601 C533.10925437 941.18602396 531.65600295 942.62822967 530.20221233 944.06984234 C529.39622842 944.87533919 528.59024452 945.68083604 527.75983685 946.51074189 C523.38999387 950.13406647 518.2901817 949.47798846 512.84671307 949.46457195 C511.95344196 949.46632499 511.06017085 949.46807803 510.13983092 949.46988419 C507.12508096 949.47456265 504.11037885 949.47207392 501.09562683 949.46965027 C498.92084521 949.47151733 496.74606392 949.47381761 494.57128316 949.47651559 C488.57784342 949.48265334 482.58441758 949.48249767 476.5909754 949.48132122 C470.13330024 949.4811177 463.67562961 949.48663142 457.21795654 949.49137878 C444.55742349 949.49991567 431.89689441 949.50244716 419.23635878 949.50299116 C408.94386552 949.50345052 398.65137377 949.50550789 388.358881 949.50869179 C385.39720784 949.50958933 382.43553468 949.51047915 379.47386152 949.51136667 C378.36944203 949.51169824 378.36944203 949.51169824 377.24271103 949.51203651 C356.52452258 949.51819303 335.80633466 949.52213686 315.08814526 949.52169323 C314.30665452 949.52167765 313.52516378 949.52166207 312.71999151 949.52164602 C308.75901968 949.52156291 304.79804786 949.52146387 300.83707603 949.52136131 C300.05040827 949.52134137 299.2637405 949.52132142 298.45323432 949.52130087 C296.86239666 949.52126044 295.271559 949.52121864 293.68072134 949.52117548 C268.94835587 949.52056318 244.21600412 949.52805996 219.48364258 949.54174805 C191.69765126 949.55711981 163.91166896 949.56571353 136.12567312 949.56478482 C133.16054205 949.5647102 130.19541099 949.56466149 127.23027992 949.56463051 C126.50019066 949.56461885 125.77010141 949.5646072 125.01788823 949.56459519 C113.28285187 949.56456445 101.54782744 949.57094307 89.81279462 949.57956277 C78.00827129 949.58805385 66.20376681 949.58884685 54.39924207 949.58245345 C48.00762424 949.5791897 41.61604952 949.57912632 35.22443581 949.5878067 C29.3671956 949.59567933 23.51003262 949.59423237 17.65279428 949.58552257 C15.53960542 949.58398923 13.42641078 949.58579746 11.31322875 949.59138265 C-18.16316345 949.6640967 -44.23187018 944.59985244 -67.44140625 925.3359375 C-68.3025 924.63855469 -69.16359375 923.94117188 -70.05078125 923.22265625 C-89.80580864 906.44315317 -101.66938737 881.57335532 -103.96730214 855.92782754 C-104.49967518 849.34167262 -104.58167422 842.79857055 -104.5700407 836.19382191 C-104.57179374 834.91878865 -104.57354678 833.6437554 -104.57535294 832.33008477 C-104.58004873 828.80996855 -104.57859246 825.28987842 -104.57607517 821.76976097 C-104.57443397 817.93278979 -104.57858965 814.095824 -104.58198434 810.25885457 C-104.58712667 803.5401356 -104.58855757 796.82142384 -104.58752823 790.10270309 C-104.58600126 780.11136652 -104.59016958 770.1200379 -104.59540285 760.12870287 C-104.60506791 741.24442133 -104.60788678 722.36014251 -104.60845991 703.47585879 C-104.60891965 688.8915255 -104.61097901 674.30719328 -104.61416054 659.72286034 C-104.6150581 655.52309185 -104.61594791 651.32332337 -104.61683542 647.12355489 C-104.61705646 646.0794488 -104.61727751 645.03534272 -104.61750526 643.95959707 C-104.62365842 614.59559702 -104.62760592 585.23159734 -104.62716198 555.86759663 C-104.6271464 554.76077234 -104.62713082 553.65394805 -104.62711477 552.51358363 C-104.62703167 546.90387695 -104.62693262 541.29417027 -104.62683006 535.6844636 C-104.62681012 534.57037728 -104.62679017 533.45629096 -104.62676962 532.30844446 C-104.62672919 530.05549121 -104.62668739 527.80253797 -104.62664423 525.54958473 C-104.62603148 490.49765195 -104.63353838 455.44572884 -104.6472168 420.39379883 C-104.66258199 381.00323625 -104.67118277 341.61268003 -104.67025357 302.22211426 C-104.67017895 298.02077401 -104.67013024 293.81943375 -104.67009926 289.61809349 C-104.6700876 288.58363483 -104.67007595 287.54917616 -104.67006394 286.48337026 C-104.67003319 269.84708982 -104.67641494 253.21081779 -104.68503152 236.57453984 C-104.69351408 219.85100917 -104.69449322 203.12749077 -104.6879222 186.40395913 C-104.68423067 176.47385791 -104.68604708 166.54379403 -104.69586454 156.61369677 C-104.70187393 149.97329695 -104.70055842 143.33292412 -104.69339404 136.69252553 C-104.68952066 132.91396622 -104.68871331 129.13547908 -104.6968514 125.35692493 C-104.7703076 88.80362927 -100.71447131 56.65180768 -74.12890625 29.5234375 C-53.90684644 9.67783644 -28.11539584 0.04863284 0 0 Z " fill="#E9AD26" transform="translate(1456.44140625,323.6640625)"/>
<path d="M0 0 C3.94258171 0.01115277 7.88510695 -0.00114116 11.82768425 -0.01030749 C18.7224762 -0.02315798 25.61713934 -0.0212917 32.51193145 -0.0095278 C42.76484988 0.00791749 53.01766778 0.0023323 63.27059155 -0.00769471 C81.58541487 -0.02485634 99.90017819 -0.01936532 118.21500025 -0.00433752 C134.24097112 0.00872714 150.2669212 0.01390773 166.29289726 0.01134432 C167.35697009 0.0111839 168.42104293 0.01102349 169.51736039 0.01085821 C173.83701755 0.0101946 178.1566747 0.00949218 182.47633184 0.00873287 C222.9739231 0.0017133 263.47147777 0.01718569 303.96905972 0.04335633 C339.93495963 0.06647533 375.90081933 0.07185723 411.866725 0.06162393 C421.07884599 0.05902184 430.29096698 0.0564368 439.50308803 0.05402601 C440.6372731 0.05372856 441.77145817 0.05343112 442.94001249 0.05312465 C473.01147744 0.04550759 503.0829391 0.05192378 533.15440258 0.06272203 C536.39055513 0.06386981 539.62670767 0.06501299 542.86286022 0.06614886 C545.0095483 0.0669041 547.15623638 0.06766975 549.30292445 0.06844586 C565.31942067 0.07410051 581.33590647 0.07277676 597.35240272 0.06821764 C615.56444988 0.06310716 633.77645812 0.06897484 651.98849558 0.08911193 C662.1767861 0.10008782 672.36500008 0.10290111 682.55329291 0.0938234 C689.36303865 0.08859531 696.17271903 0.09432421 702.98245106 0.10887675 C706.85928402 0.11686318 710.73596256 0.12023302 714.61279457 0.11030419 C718.79807075 0.09970774 722.98296312 0.11248662 727.16822627 0.12735212 C728.3590218 0.12061447 729.54981733 0.11387682 730.77669758 0.106935 C755.26745363 0.27484595 777.51155303 9.70807902 795.98903945 25.50766886 C796.57685195 25.95110636 797.16466445 26.39454386 797.77028945 26.85141886 C811.33337585 37.34361776 820.42370438 54.11338458 825.86403945 70.00766886 C826.29378066 71.25205728 826.29378066 71.25205728 826.73220351 72.52158487 C831.35386499 86.85791202 831.30662296 101.2515385 831.24978164 116.15708292 C831.23906182 119.50069187 831.24972638 122.84376368 831.26247695 126.18735636 C831.28630978 159.47685994 822.98819134 187.43021631 798.98903945 211.50766886 C777.55961042 231.3896038 751.12285147 239.71022658 722.20073035 239.63071668 C721.15590722 239.63187053 720.11108408 239.63302437 719.03459963 239.63421318 C715.54058606 239.63685582 712.04661876 239.63237711 708.55260757 239.62792337 C706.01959908 239.62835955 703.48659064 239.62923533 700.95358244 239.63051254 C695.45012723 239.6322816 689.9466863 239.63095166 684.44323257 239.62687433 C676.25985621 239.62082843 668.07648666 239.62053954 659.89310848 239.62141632 C646.12601495 239.62272898 632.35892623 239.61939352 618.5918341 239.61339891 C604.96284877 239.60747967 591.33386544 239.60363252 577.70487884 239.6025461 C576.857122 239.60247736 576.00936517 239.60240862 575.13591874 239.6023378 C570.83050084 239.60199946 566.52508294 239.60169808 562.21966504 239.60141092 C531.73312051 239.59931112 501.2465786 239.59257548 470.76003555 239.58310831 C441.14480131 239.57392234 411.52956779 239.56683947 381.91433242 239.5626005 C380.54476199 239.56240321 380.54476199 239.56240321 379.14752346 239.56220193 C369.97823891 239.5608834 360.80895436 239.55960759 351.6396698 239.55836307 C332.96117392 239.55582693 314.28267808 239.55300568 295.60418227 239.550012 C294.74539595 239.54987471 293.88660963 239.54973742 293.00179948 239.54959597 C235.66421171 239.54039701 178.32662542 239.52453119 120.98903945 239.50766886 C112.35232215 320.8144704 105.45321737 405.02597445 158.11234601 585.86256918 C168.17580159 598.09457706 179.11563088 609.42125418 190.38747695 620.53501261 C191.24310481 621.38173456 192.09873268 622.22845651 192.98028866 623.1008367 C214.76587811 644.59906861 237.72809839 664.57851611 261.28909138 684.09365273 C274.87252344 695.36833285 288.05695201 707.01212861 301.05886367 718.95176065 C301.99029812 719.80688542 302.92173258 720.6620102 303.88139232 721.54304784 C308.56063185 725.84270674 313.2338246 730.14887147 317.90376833 734.45862317 C326.97197423 742.82502124 336.07530846 751.15285363 345.19695571 759.46093118 C346.07687736 760.26246062 346.95679901 761.06399005 347.86338495 761.88980825 C360.70766812 773.57455577 373.71689097 785.04983631 386.8941603 796.35750711 C387.7132303 797.06054748 388.5323003 797.76358784 389.3761906 798.48793246 C397.07981784 805.09426488 404.80360645 811.67591945 412.57049953 818.20778215 C415.32931532 820.53079738 418.07996262 822.86336143 420.82964967 825.19716985 C422.6629457 826.74576198 424.50847654 828.27864343 426.35544911 829.81086999 C434.405626 836.58490298 440.76906856 844.04615424 446.98903945 852.50766886 C447.90641392 853.73258029 448.82499359 854.95659012 449.74482861 856.1796549 C456.43684228 865.109301 461.84848119 874.61750094 466.98903945 884.50766886 C467.37446914 885.24050089 467.75989883 885.97333292 468.1570082 886.72837198 C484.76987822 918.67837967 492.47082614 954.27512254 492.30153945 990.13266886 C492.2993843 990.96116342 492.29722915 991.78965799 492.29500869 992.64325846 C492.01387564 1060.29475757 462.35316594 1116.56263948 415.3288832 1163.43345011 C413.84751867 1164.9161667 412.36645071 1166.39917966 410.88566116 1167.88247049 C407.80543149 1170.96562324 404.7216798 1174.0451954 401.63527969 1177.12217081 C397.70627248 1181.039755 393.78635709 1184.96629454 389.86903575 1188.89555967 C386.82096383 1191.95090107 383.76809225 1195.00141111 380.71380332 1198.05053652 C379.26725173 1199.49576722 377.82214729 1200.94244809 376.37860969 1202.39068926 C338.21878259 1240.64763479 290.83467682 1264.87058362 236.98903945 1271.50766886 C236.25918838 1271.60193155 235.5293373 1271.69619425 234.77736953 1271.79331339 C180.42773686 1278.09325007 122.36295753 1263.61743872 77.98903945 1231.50766886 C76.63615999 1230.38734498 75.28420712 1229.26590189 73.93279556 1228.14380777 C69.34849695 1224.46464157 64.59597088 1221.12752026 59.72521499 1217.83954752 C30.4291478 1198.01573616 2.73990499 1176.4886683 -23.96772107 1153.32857156 C-25.63179103 1151.88628267 -27.29881557 1150.44746168 -28.96596143 1149.0087303 C-86.52335828 1099.21796862 -123.1430282 1048.69736573 -129.05139634 971.12445963 C-131.84382888 931.05669982 -131.24160021 890.98258399 -129.63596055 850.88266886 C-129.55660128 848.85012427 -129.47731195 846.81757694 -129.39809224 844.78502691 C-127.32449819 792.20968679 -123.52703835 739.83196192 -118.01096055 687.50766886 C-112.17745268 692.35686019 -106.79860575 697.56408527 -101.43076035 702.92051065 C-100.47549914 703.87031504 -99.52003461 704.81991497 -98.56438586 705.76932943 C-95.95366661 708.36430558 -93.34602722 710.96235694 -90.73895451 713.56099594 C-88.49917794 715.7927312 -86.25758725 718.02263996 -84.01598969 720.25254596 C-75.99864545 728.22815279 -67.98849031 736.21096327 -59.97971055 744.19516886 C-59.34771784 744.82518667 -58.71572513 745.45520448 -58.06458113 746.10431373 C-45.51246435 758.61728154 -32.96308119 771.13298807 -20.41940018 783.65441263 C-17.6667567 786.40208711 -14.91407555 789.14972385 -12.16135117 791.89731729 C-11.13513338 792.92162908 -11.13513338 792.92162908 -10.08818391 793.96663404 C1.01701104 805.05042738 12.1359555 816.12032404 23.26038465 827.18480897 C34.6833455 838.54672233 46.09311446 849.92175138 57.4902406 861.30958021 C63.88916514 867.7025866 70.29391854 874.08951368 76.71366409 880.46161783 C82.1748963 885.88235708 87.62424947 891.31468396 93.05818519 896.76279176 C95.83205579 899.54315065 98.61137198 902.31744244 101.40610793 905.07684076 C103.96219825 907.60086706 106.50174281 910.14037526 109.02885529 912.69340515 C110.38451432 914.05447263 111.75750329 915.39821012 113.13093904 916.74133718 C113.92581208 917.55076426 114.72068512 918.36019134 115.53964523 919.19414652 C116.23491585 919.88730117 116.93018646 920.58045582 117.64652589 921.29461515 C118.98903945 923.50766886 118.98903945 923.50766886 118.76322034 926.589764 C117.68751458 930.64412275 116.32611233 934.55593366 114.92653945 938.50766886 C109.73547415 955.11907781 112.72071551 974.00601176 120.55153945 989.25766886 C129.8381331 1006.16804646 145.19977453 1017.89292701 163.64846328 1023.27427042 C182.69622076 1028.40136633 201.05509792 1025.25582284 218.22341445 1015.83579386 C234.20972359 1006.3871208 245.0703408 990.04570574 249.86403945 972.32016886 C253.75379503 952.98785071 250.16147091 934.30025412 239.98903945 917.50766886 C229.65671358 902.24761834 213.94184552 892.53509493 196.17653945 888.20298136 C182.16938056 885.56483149 167.36690941 886.844485 154.3288832 892.70298136 C151.56533998 893.65338186 150.71695335 893.42906078 147.98903945 892.50766886 C146.40804111 891.63605629 144.86194972 890.69997592 143.34262756 889.7248224 C142.40808543 889.12610276 141.4735433 888.52738311 140.51068172 887.91052044 C139.48733555 887.24345435 138.46398938 886.57638827 137.40963271 885.88910806 C136.31994247 885.18021983 135.23025222 884.4713316 134.10754106 883.74096191 C92.98467779 856.85729577 54.38935659 826.95464857 17.1390228 794.94404292 C14.74697574 792.88948543 12.35049811 790.84017938 9.95388368 788.79095304 C-68.62655883 721.4246626 -122.55932951 648.84552595 -133.59957833 530.95379313 C-138.17396974 469.28577399 -137.19925052 407.43747699 -134.90876442 345.70000173 C-134.79480458 342.60421166 -134.68434483 339.50830076 -134.57387787 336.41238439 C-132.20896149 270.23175855 -128.43402567 204.18087338 -122.57272813 138.21421182 C-122.46957659 137.05275738 -122.36642506 135.89130293 -122.26014772 134.69465289 C-121.58316138 127.11173452 -120.88039484 119.53152836 -120.16167161 111.95246256 C-120.07400747 111.00824011 -119.98634334 110.06401766 -119.89602271 109.09118241 C-116.95623004 77.67116887 -109.15598517 46.88602987 -84.01096055 25.50766886 C-57.90166957 4.53097354 -32.68348838 -0.12968623 0 0 Z " fill="#138BBD" transform="translate(1474.0109605481848,1355.4923311444)"/>
<path d="M0 0 C2.03254459 0.07935927 4.06509191 0.15864859 6.09764194 0.23786831 C58.67298207 2.31146236 111.05070694 6.1089222 163.375 11.625 C158.52506942 17.4604148 153.31529801 22.83809583 147.95542908 28.2052002 C147.00490983 29.1604591 146.05459728 30.11592371 145.10447222 31.07157469 C142.50756437 33.68229452 139.90757925 36.28993016 137.30701387 38.89700603 C135.07364956 41.13677081 132.84212322 43.37836234 130.6106097 45.61997086 C123.26832762 52.99544707 115.92025227 60.36513682 108.57055625 67.73322415 C106.65771531 69.65086496 104.74496588 71.568597 102.83223653 73.48634911 C90.95004629 85.3994878 79.06571926 97.31049218 67.17644405 109.21656036 C64.42773981 111.96921388 61.67906249 114.72189427 58.93041992 117.47460938 C58.24728309 118.15875457 57.56414625 118.84289977 56.8603083 119.54777664 C45.7707735 130.65435343 34.69335215 141.77293288 23.62070709 152.8963452 C12.25129627 164.31745501 0.87065656 175.72727876 -10.52099985 187.12620115 C-16.91655584 193.52642613 -23.3069431 199.9316376 -29.68467903 206.34962463 C-35.10985124 211.80899605 -40.54497514 217.25820058 -45.99362428 222.69414574 C-48.77458175 225.46925481 -51.55036755 228.24907974 -54.31337738 231.04206848 C-56.84007691 233.59595976 -59.38007958 236.13576453 -61.93163519 238.66481584 C-63.29374862 240.02214077 -64.64099594 241.39433323 -65.98774964 242.76689959 C-66.79518567 243.56177263 -67.6026217 244.35664567 -68.43452549 245.17560577 C-69.12805986 245.87087639 -69.82159423 246.56614701 -70.53614479 247.28248644 C-72.625 248.625 -72.625 248.625 -75.20331091 248.39918089 C-76.40204701 248.01596135 -76.40204701 248.01596135 -77.625 247.625 C-78.594375 247.315625 -79.56375 247.00625 -80.5625 246.6875 C-82.60416667 245.97916667 -84.64583333 245.27083333 -86.6875 244.5625 C-103.58211314 239.17060219 -122.80234952 242.28461519 -138.3125 250.1875 C-154.27799767 258.88879977 -165.6978002 273.38021613 -171.62890625 290.52734375 C-177.23219071 310.69375402 -174.36785986 329.73862035 -164.3125 347.875 C-154.56130989 363.81242899 -139.43127163 374.51608212 -121.3125 379 C-102.25448087 383.25957948 -83.18624728 380.00235098 -66.625 369.625 C-50.9040729 358.79760772 -40.14443246 342.49976452 -36.625 323.625 C-34.6816331 309.64770733 -35.59803333 295.39775848 -42.05078125 282.60546875 C-42.625 280.625 -42.625 280.625 -41.84118181 278.79064536 C-15.06986596 231.11917446 20.93889519 187.60059153 56.38792765 146.265939 C58.43076927 143.88285177 60.46843206 141.49540192 62.50607586 139.1078701 C129.78109833 60.49147853 202.34526233 7.05258663 317.95833716 -3.73436354 C380.59592521 -8.52757724 443.4560507 -7.51789581 506.17264684 -5.20997551 C509.2818966 -5.09645166 512.39126588 -4.98641901 515.50064066 -4.87638133 C581.97445538 -2.52049013 648.32006742 1.24060116 714.58251953 7.07910156 C715.74999681 7.18185585 716.91747408 7.28461014 718.12032945 7.39047819 C724.73559618 7.97563377 731.34923695 8.57596909 737.9611268 9.19815195 C739.92281847 9.38270655 741.88469718 9.56528691 743.8467818 9.74561608 C778.04266986 12.91322911 807.04017769 23.06749603 829.69238281 50.203125 C845.85005596 70.6617615 851.72942906 95.57937443 851.62668228 121.23554993 C851.62958916 122.52477415 851.63249604 123.81399837 851.63549101 125.14229 C851.64320489 128.68823516 851.6386588 132.23406991 851.63193511 135.78001307 C851.626827 139.6501408 851.63339519 143.52025258 851.63842177 147.390378 C851.64562264 154.1626021 851.64543991 160.93479427 851.64032745 167.70701981 C851.63274566 177.77775594 851.6366387 187.84846526 851.64274407 197.91920123 C851.65326426 215.90813372 851.65236726 233.89705198 851.64658624 251.88598582 C851.64155206 267.6285514 851.64024316 283.37111176 851.64263153 299.11367798 C851.64286069 300.68098328 851.64286069 300.68098328 851.64309447 302.27995131 C851.64371716 306.52158515 851.64435397 310.76321899 851.645014 315.00485282 C851.65112987 354.78204227 851.64558845 394.55922267 851.6348202 434.33641072 C851.62532923 469.6640573 851.6261785 504.99168947 851.63574219 540.31933594 C851.64645504 580.02449737 851.65069611 619.72965082 851.64451766 659.4348135 C851.64387624 663.66864967 851.64325056 667.90248585 851.64263153 672.13632202 C851.64247338 673.17877493 851.64231522 674.22122785 851.64215227 675.29527024 C851.63987881 691.02665249 851.64253512 706.75802895 851.64759064 722.4894104 C851.65331127 740.37945958 851.65187496 758.26949233 851.64102915 776.15953946 C851.63516153 786.16783747 851.63476609 796.17609988 851.6423215 806.18439696 C851.64681416 812.874264 851.64400087 819.56410257 851.63531196 826.2539654 C851.63056643 830.06236333 851.62890258 833.87069068 851.63612393 837.67908633 C851.64384086 841.79093245 851.63595347 845.90260718 851.62668228 850.01445007 C851.63136461 851.18364231 851.63604695 852.35283455 851.64087117 853.55745685 C851.52337854 879.68698205 844.15042063 903.41364985 827.375 923.625 C826.67761719 924.48609375 825.98023438 925.3471875 825.26171875 926.234375 C807.81471939 946.77526639 782.56089854 957.82865182 756.10073853 960.41035461 C751.84446471 960.74552599 747.60367949 960.78745048 743.3359375 960.79296875 C742.41140778 960.79629715 741.48687805 960.79962555 740.53433228 960.80305481 C738.58978771 960.80808262 736.64523465 960.81046443 734.70068359 960.81030273 C731.7781698 960.81247902 728.85604055 960.83065163 725.93359375 960.84960938 C693.9700473 960.94797127 665.00470229 953.31909794 641.625 930.375 C622.65164531 911.04142736 611.98078866 885.58866095 612.12890434 858.48127365 C612.12659665 857.42232421 612.12428897 856.36337477 612.12191135 855.27233595 C612.11663935 851.74226335 612.12557216 848.2123751 612.13449097 844.68231201 C612.13361833 842.11870349 612.13186627 839.55509514 612.12931263 836.99148774 C612.12518044 831.42736061 612.12842647 825.86327641 612.13658905 820.29915428 C612.14869253 812.02560293 612.14925756 803.75207846 612.14750507 795.47851986 C612.14488117 781.55899274 612.15154528 767.63948466 612.16353989 753.71996307 C612.1753821 739.94191137 612.18307343 726.1638676 612.18524551 712.38581085 C612.18538299 711.52848707 612.18552047 710.67116329 612.18566212 709.78786 C612.1863388 705.43377971 612.18694156 701.07969941 612.18751587 696.72561911 C612.19171444 665.90187219 612.20518286 635.07813562 612.22412109 604.25439453 C612.24249576 574.31331436 612.25666015 544.37223702 612.26513672 514.43115234 C612.2655313 513.0462889 612.2655313 513.0462889 612.26593385 511.63344842 C612.26857093 502.36169932 612.27112255 493.08995021 612.27361157 483.81820107 C612.27868372 464.93131114 612.28432622 446.0444214 612.29031372 427.15753174 C612.2905883 426.28918157 612.29086288 425.42083141 612.29114578 424.52616761 C612.30954084 366.5591074 612.34127216 308.59205306 612.375 250.625 C531.51860232 242.01317748 447.94074705 235.32180117 264.87473857 287.82432917 C252.61838023 297.90966071 241.27096272 308.87438664 230.13671875 320.171875 C228.86405827 321.45843133 228.86405827 321.45843133 227.56568748 322.77097869 C206.01987 344.61310784 185.99721604 367.63456738 166.4412328 391.25735044 C155.14838788 404.87009818 143.48717099 418.08492374 131.52954102 431.11669922 C130.67338818 432.04998986 129.81723535 432.9832805 128.93513849 433.94485268 C124.629939 438.63378235 120.31815495 443.31659554 116.00264299 447.99603415 C107.61901873 457.08886027 99.27247013 466.2154403 90.94551086 475.36016846 C90.14181847 476.24265106 89.33812607 477.12513367 88.51007936 478.03435817 C76.80437456 490.90425303 65.31512141 503.94368612 53.99186707 517.15106201 C53.2872455 517.97232942 52.58262393 518.79359683 51.85665019 519.63975114 C45.23575399 527.36171962 38.63792106 535.10211442 32.09796967 542.89278987 C9.46544795 569.82636246 9.46544795 569.82636246 -3.88535249 578.488379 C-5.77976948 579.72612062 -7.61770087 581.02745499 -9.45537281 582.34780502 C-56.01950977 615.80146138 -118.564452 628.40685444 -174.89453125 619.6640625 C-240.32675069 608.29339179 -284.78299677 572.69296441 -330.38256836 526.99780273 C-333.15580017 524.21881775 -335.93357835 521.44442691 -338.71265507 518.67128849 C-340.88592846 516.50164752 -343.05679172 514.32960756 -345.22695732 512.15685844 C-346.25034005 511.1328168 -347.27444331 510.10949461 -348.29933357 509.08696175 C-353.96018676 503.43630315 -359.43898693 497.71440879 -364.625 491.625 C-365.51247024 490.62595532 -366.40170479 489.62847422 -367.29296875 488.6328125 C-400.18161819 451.00207872 -420.33477646 399.60713801 -421.625 349.625 C-421.64546387 348.91166504 -421.66592773 348.19833008 -421.68701172 347.46337891 C-422.93652398 297.76170507 -409.65541063 242.40274393 -377.21524048 203.4972229 C-373.54818715 198.93870019 -370.22925028 194.2090883 -366.95687866 189.36117554 C-347.13315813 160.06506174 -325.605989 132.3758535 -302.44590271 105.66823947 C-301.00361382 104.00416952 -299.56479283 102.33714497 -298.12606144 100.66999912 C-236.08536419 28.95185479 -176.40078545 1.38857155 0 0 Z " fill="#0B9959" transform="translate(421.625,1344.375)"/>
<path d="M0 0 C4.41921381 3.45759054 9.00339311 6.62164579 13.64151001 9.77374268 C43.42061277 30.08281245 71.56951263 52.11393943 98.74977499 75.75517517 C100.44213394 77.22641739 102.13745556 78.69419347 103.83290815 80.16186857 C162.78291843 131.31151196 200.17093644 182.83868725 205.8174097 262.46951422 C208.36043639 301.45817733 207.79098368 340.40692357 206.19654846 379.41775513 C206.11585476 381.44293827 206.0352384 383.4681245 205.95469904 385.49331379 C203.84781979 437.85253568 199.99217014 490.00662403 194.38404846 542.10525513 C191.02125575 540.64446437 188.82069214 538.79076031 186.23739243 536.20469475 C185.41431367 535.38559809 184.59123491 534.56650142 183.74321437 533.72258365 C182.84438383 532.81792743 181.9455533 531.91327121 181.01948547 530.98120117 C180.05125671 530.01384446 179.08258861 529.04692732 178.11351895 528.08041298 C175.45007482 525.42144652 172.79291648 522.75627455 170.13672638 520.09006429 C167.27194472 517.2166565 164.40139671 514.34901969 161.53153992 511.48068237 C156.55951127 506.5097031 151.5911615 501.53507117 146.62528229 496.55794907 C139.44542491 489.36184687 132.26006004 482.17126486 125.07333317 474.98202397 C113.41387524 463.31818733 101.75889187 451.64989011 90.10670471 439.97879028 C78.78678064 428.64051194 67.46476069 417.30433327 56.13990784 405.97097778 C55.44200177 405.27254626 54.74409569 404.57411475 54.02504095 403.85451864 C50.52388522 400.35075285 47.02268816 396.84702837 43.52147055 393.34332442 C14.46925276 364.27036869 -14.57571115 335.19017447 -43.61595154 306.10525513 C-43.40999359 305.49041763 -43.20403564 304.87558014 -42.99183655 304.24211121 C-42.72164703 303.43390427 -42.45145752 302.62569733 -42.17308044 301.79299927 C-41.9052475 300.99253677 -41.63741455 300.19207428 -41.36146545 299.36735535 C-39.05473904 292.36809455 -37.20905139 285.45969332 -36.61595154 278.10525513 C-36.56309998 277.46845825 -36.51024841 276.83166138 -36.45579529 276.17556763 C-35.65109179 257.6324001 -43.37061874 240.22131552 -54.74095154 225.98025513 C-67.10625439 212.51090738 -85.05373528 205.3286852 -102.96360779 203.82400513 C-120.20769127 203.32114 -135.69010672 209.27524702 -149.61595154 219.10525513 C-150.56921326 219.77814575 -150.56921326 219.77814575 -151.54173279 220.46463013 C-165.31862191 231.23277335 -172.73389447 248.57012804 -175.08470154 265.47634888 C-176.99040662 284.90154727 -171.57423892 302.44993158 -159.55345154 317.72634888 C-148.05655749 331.21466921 -131.95656462 340.79879058 -114.08177185 342.32107544 C-103.55395668 342.85495589 -93.68435173 342.44307402 -83.61595154 339.10525513 C-81.89082007 338.58155393 -80.16438824 338.06212579 -78.43699646 337.54592896 C-77.5347081 337.27605667 -76.63241974 337.00618439 -75.70278931 336.72813416 C-74.66980461 336.41980904 -74.66980461 336.41980904 -73.61595154 336.10525513 C-27.32336668 365.99999701 16.18985214 399.01856851 57.96030271 434.95810181 C59.57266557 436.34488818 61.18643174 437.73004469 62.8016144 439.11354584 C142.16667169 507.09785497 198.76049413 579.70287161 210.08314034 698.90316657 C214.66690659 759.89421439 213.67641163 821.0676363 211.3458066 882.12758092 C211.22989925 885.18721354 211.11746167 888.24696972 211.00499303 891.30673036 C208.27779559 965.38382551 203.55553464 1039.23255702 196.42796326 1113.0219574 C196.29313562 1114.42169486 196.29313562 1114.42169486 196.1555842 1115.84970985 C193.35775464 1144.70216352 189.36846407 1170.10814776 170.38404846 1193.10525513 C169.77174377 1193.88127075 169.15943909 1194.65728638 168.52857971 1195.45681763 C153.03888552 1214.15013727 129.19364511 1225.85601729 105.38404846 1229.10525513 C100.92758236 1229.37359328 96.48496989 1229.37775324 92.02139854 1229.36252403 C90.71037491 1229.36603011 89.39935128 1229.36953618 88.04859966 1229.3731485 C84.42285952 1229.38255585 80.79722051 1229.3796224 77.17147557 1229.37459296 C73.22176352 1229.37131465 69.27207255 1229.37961855 65.32236731 1229.38641131 C58.404158 1229.39670256 51.48597667 1229.39955662 44.56776047 1229.39749908 C34.2797678 1229.39444684 23.99180605 1229.40277805 13.7038194 1229.41324834 C-5.74094049 1229.43258491 -25.18568982 1229.43821643 -44.63045819 1229.43936245 C-59.64769249 1229.44028174 -74.66492265 1229.44439947 -89.68215561 1229.4507637 C-94.00576063 1229.45255881 -98.32936565 1229.45433843 -102.65297067 1229.45611346 C-103.72785067 1229.45655555 -104.80273066 1229.45699765 -105.91018277 1229.45745314 C-136.14261894 1229.46976069 -166.37505367 1229.47765436 -196.60749245 1229.47676659 C-197.74720568 1229.47673543 -198.88691891 1229.47670427 -200.0611689 1229.47667217 C-205.83763049 1229.47650596 -211.61409208 1229.47630787 -217.39055367 1229.47610275 C-218.537767 1229.47606286 -219.68498033 1229.47602297 -220.8669577 1229.47598187 C-223.18690257 1229.475901 -225.50684745 1229.4758174 -227.82679233 1229.47573109 C-263.91912583 1229.47450566 -300.01142176 1229.48951772 -336.10374451 1229.51687622 C-376.65929358 1229.54760529 -417.21481797 1229.56480822 -457.77037942 1229.56294978 C-462.09587057 1229.56280052 -466.42136172 1229.5627031 -470.74685287 1229.56264114 C-471.81188735 1229.56261784 -472.87692183 1229.56259453 -473.97423007 1229.56257051 C-491.10431736 1229.562509 -508.23437198 1229.57527407 -525.36444955 1229.59250567 C-542.58436507 1229.60946923 -559.80423286 1229.61143031 -577.02415211 1229.59828703 C-587.24978534 1229.59090275 -597.47527349 1229.59454028 -607.70089131 1229.61417171 C-614.53832058 1229.62618754 -621.37564497 1229.62356283 -628.21306946 1229.60923071 C-632.10423948 1229.60148126 -635.99512913 1229.59987643 -639.88627918 1229.61614542 C-671.82707444 1229.74087788 -700.27964609 1224.07440572 -723.75267029 1201.00369263 C-724.70936184 1200.03978905 -725.6639743 1199.07381497 -726.61595154 1198.10525513 C-727.73936951 1196.97990356 -727.73936951 1196.97990356 -728.88548279 1195.83181763 C-736.84717607 1187.3833147 -742.88884143 1177.49796643 -747.42845154 1166.85525513 C-747.8268927 1165.94743286 -747.8268927 1165.94743286 -748.23338318 1165.02127075 C-754.86029329 1148.54872509 -755.22359377 1131.94882835 -755.08250427 1114.41873169 C-755.05345319 1110.48047882 -755.06195515 1106.54357037 -755.07493591 1102.60525513 C-755.0481723 1069.1881824 -747.18059893 1043.50213345 -723.86595154 1018.98025513 C-705.88691165 1001.49909634 -681.21836448 990.9151914 -656.16366005 990.9822073 C-654.5780228 990.98047653 -654.5780228 990.98047653 -652.96035248 990.9787108 C-649.40051898 990.97605343 -645.84073026 990.98055912 -642.28089905 990.98500061 C-639.71009478 990.98456473 -637.13929056 990.98368951 -634.56848657 990.98241144 C-628.9700579 990.980338 -623.37163987 990.981981 -617.77321243 990.98604965 C-609.4485462 990.9920828 -601.12388667 990.99238563 -592.79921865 990.99150766 C-578.79604613 990.99019345 -564.79287833 990.99353638 -550.78970718 990.99952507 C-536.92296449 991.00544023 -523.05622377 991.00929064 -509.18947983 991.01037788 C-508.32758457 991.01044662 -507.46568931 991.01051536 -506.57767601 991.01058619 C-502.20062183 991.01092451 -497.82356765 991.0112259 -493.44651346 991.01151306 C-462.43642247 991.01361399 -431.42633405 991.02035278 -400.41624451 991.02981567 C-370.28864048 991.03899866 -340.16103715 991.04608299 -310.03343201 991.05032349 C-308.64066158 991.05052078 -308.64066158 991.05052078 -307.21975437 991.05072205 C-297.89531734 991.05204056 -288.57088031 991.05331638 -279.24644327 991.05456091 C-260.25115359 991.05709719 -241.25586395 991.05991844 -222.26057434 991.06291199 C-220.95048879 991.06311792 -220.95048879 991.06311792 -219.61393685 991.06332802 C-161.28127401 991.07253011 -102.94861261 991.08839626 -44.61595154 991.10525513 C-36.08496171 909.75772278 -29.2434543 825.55170483 -81.35631414 645.093872 C-91.30312687 632.9699293 -102.12416828 621.74893428 -113.28001404 610.74197388 C-114.12601602 609.90421758 -114.97201801 609.06646127 -115.84365642 608.20331842 C-137.36499286 586.95314239 -160.06237877 567.22550517 -183.36064219 547.96154892 C-196.80311378 536.82248697 -209.8406698 525.30975924 -222.69651794 513.49954224 C-223.61826603 512.65297303 -224.54001411 511.80640382 -225.48969395 510.934181 C-230.11962015 506.67815682 -234.74359665 502.4157321 -239.36455464 498.14997423 C-248.32515172 489.88122858 -257.32387658 481.65435462 -266.34138489 473.44773865 C-267.21056964 472.65669958 -268.07975438 471.86566052 -268.97527806 471.05065057 C-289.9030288 452.03006269 -311.34335686 433.6120839 -332.96782587 415.39019487 C-335.03297843 413.64997478 -337.09659873 411.90795157 -339.1600498 410.16571456 C-341.63453188 408.07669346 -344.1160937 405.99662504 -346.60337889 403.92287368 C-352.4447963 399.02389563 -357.85288058 394.07555325 -362.61595154 388.10525513 C-363.15691676 387.4396212 -363.69788198 386.77398728 -364.25524008 386.08818263 C-392.8805656 350.65339442 -411.00928258 308.52915372 -415.61595154 263.10525513 C-415.72681091 262.09463013 -415.83767029 261.08400513 -415.95188904 260.04275513 C-421.4722786 201.5564657 -403.70128028 141.03420046 -366.5846405 95.44377136 C-357.66890917 84.85317892 -347.80297958 75.10073705 -338.04563904 65.29666138 C-337.31569859 64.5626454 -336.58575813 63.82862942 -335.83369827 63.07237053 C-331.97204943 59.19002715 -328.10724898 55.31085223 -324.23997498 51.43411255 C-320.29515127 47.47823494 -316.36216067 43.51080653 -312.43169975 39.54066563 C-309.36168219 36.44424183 -306.28256146 33.35698632 -303.2010994 30.27195549 C-301.74917171 28.81522696 -300.30055518 27.35518884 -298.8556633 25.8914814 C-226.44520407 -47.40333701 -110.03802223 -65.14260293 0 0 Z " fill="#138BBD" transform="translate(1078.615951538086,42.894744873046875)"/>
<path d="M0 0 C3.86466333 1.58780359 6.30059155 4.05933229 9.22753906 7.00048828 C9.73530884 7.507966 10.24307861 8.01544373 10.76623535 8.53829956 C12.43748509 10.21093869 14.10154556 11.89054217 15.765625 13.5703125 C16.92532377 14.73374278 18.08546592 15.89673126 19.24603271 17.05929565 C22.29509352 20.115982 25.33809963 23.17862744 28.37988281 26.24255371 C31.48659913 29.36975165 34.59900545 32.49127507 37.7109375 35.61328125 C43.81287417 41.7366488 49.90842598 47.8663236 56 54 C54.4212811 57.7998095 52.02978537 60.24222178 49.15478516 63.15161133 C48.66348618 63.65123383 48.17218719 64.15085632 47.66600037 64.6656189 C46.04577117 66.30988003 44.41804045 67.9464399 42.7890625 69.58203125 C41.65799425 70.72206651 40.52700373 71.8621789 39.39608765 73.00236511 C37.02753811 75.38738548 34.65464662 77.76799358 32.27929688 80.14624023 C29.2318421 83.19909631 26.20089532 86.26780373 23.17362404 89.34065723 C20.84521852 91.69874375 18.5057009 94.04555772 16.16291428 96.38934898 C15.04004272 97.51643575 13.92130658 98.64765787 12.80678177 99.78299904 C11.25071471 101.36581192 9.679749 102.93217217 8.10400391 104.49536133 C7.21290924 105.39152664 6.32181458 106.28769196 5.40371704 107.21101379 C3 109 3 109 1.00871277 109.08300781 C-1.88248538 107.52420347 -3.90966717 105.48884929 -6.2434082 103.17651367 C-6.75278427 102.67560715 -7.26216034 102.17470062 -7.78697205 101.65861511 C-9.46613295 100.00282905 -11.13388466 98.33609479 -12.80078125 96.66796875 C-13.96301818 95.51283116 -15.1255539 94.35799411 -16.28837585 93.20344543 C-18.72196729 90.78329855 -21.14953921 88.35729484 -23.57348633 85.92749023 C-26.68517407 82.80989506 -29.81475085 79.71096525 -32.94950581 76.61658764 C-35.354131 74.23776515 -37.74723965 71.84761517 -40.13716698 69.45403481 C-41.28671345 68.30618537 -42.44026464 67.16233246 -43.59780312 66.02254295 C-45.21186876 64.43052823 -46.80936319 62.82354195 -48.40356445 61.21166992 C-49.31749466 60.29979416 -50.23142487 59.3879184 -51.17304993 58.44841003 C-53 56 -53 56 -53.0927124 54.00099182 C-51.51288837 51.10799366 -49.45258551 49.09509694 -47.11303711 46.77246094 C-46.60570541 46.26469116 -46.09837372 45.75692139 -45.57566833 45.23376465 C-43.89990733 43.56009075 -42.21377731 41.89728872 -40.52734375 40.234375 C-39.36226727 39.07489473 -38.19785214 37.91474958 -37.03407288 36.75396729 C-33.97133103 33.70267213 -30.89968669 30.66049375 -27.82611084 27.62011719 C-24.69050356 24.5152144 -21.56338633 21.4017869 -18.43554688 18.2890625 C-12.29864898 12.18432568 -6.15232143 6.08919256 0 0 Z " fill="#13A559" transform="translate(1319,1262)"/>
<path d="M0 0 C0.99 0.33 1.98 0.66 3 1 C-1.83060553 6.81613816 -7.02414923 12.16233765 -12.37728882 17.49754333 C-13.32086152 18.44155419 -14.26421414 19.38578507 -15.20736694 20.33021545 C-17.7900546 22.91513533 -20.37584191 25.49693465 -22.96215436 28.07822709 C-25.79707944 30.90877201 -28.62907617 33.7422444 -31.46145058 36.57534122 C-36.95501307 42.06943447 -42.45114106 47.56095402 -47.9481797 53.05156902 C-54.30914727 59.40532631 -60.66689977 65.76229377 -67.0246582 72.1192627 C-83.80537873 88.8947365 -100.59045556 105.66585218 -117.375 122.4375 C-154.87125 159.913125 -192.3675 197.38875 -231 236 C-117.48 236.33 -3.96 236.66 113 237 C113 237.33 113 237.66 113 238 C-2.17 238 -117.34 238 -236 238 C-234.19478066 234.38956132 -232.87780061 232.62873344 -230.09943962 229.85334396 C-228.87079463 228.61872583 -228.87079463 228.61872583 -227.61732852 227.35916591 C-226.2603442 226.0109201 -226.2603442 226.0109201 -224.87594604 224.63543701 C-223.90858933 223.66720825 -222.94167219 222.69854014 -221.97515786 221.72947049 C-219.31619139 219.06602636 -216.65101942 216.40886802 -213.98480916 213.75267792 C-211.11140137 210.88789625 -208.24376456 208.01734825 -205.37542725 205.14749146 C-200.40444798 200.17546281 -195.42981605 195.20711304 -190.45269394 190.24123383 C-183.25659174 183.06137645 -176.06600973 175.87601158 -168.87676884 168.68928471 C-157.21293221 157.02982678 -145.54463498 145.37484341 -133.87353516 133.72265625 C-122.53525682 122.40273218 -111.19907815 111.08071223 -99.86572266 99.75585938 C-98.81807538 98.70900027 -98.81807538 98.70900027 -97.74926351 97.64099249 C-94.24549773 94.13983676 -90.74177324 90.6386397 -87.2380693 87.13742208 C-58.16511356 58.0852043 -29.08491934 29.04024039 0 0 Z " fill="#F4BB30" transform="translate(2276,1035)"/>
<path d="M0 0 C0.66 0.33 1.32 0.66 2 1 C0.76037314 4.71888058 -0.65890758 5.51353652 -3.74595737 7.88388634 C-10.66659774 13.41833908 -16.82975811 19.57285124 -23.06468201 25.8578186 C-24.34957453 27.14542456 -25.63492006 28.43257859 -26.92067486 29.71932352 C-30.42709258 33.23093831 -33.9272567 36.74872749 -37.42641246 40.26757646 C-41.21058848 44.07076099 -45.00069891 47.86802317 -48.79017639 51.66592407 C-55.34691314 58.2386278 -61.9002398 64.81471532 -68.45150566 71.39287186 C-78.80094207 81.78429966 -89.16023435 92.16587111 -99.52101135 102.54598999 C-103.06798192 106.09983913 -106.61487564 109.65376497 -110.16173649 113.20772362 C-111.04789863 114.09565741 -111.93406077 114.98359121 -112.84707631 115.89843208 C-122.91868866 125.99051238 -132.9879487 136.08493841 -143.05639648 146.18017578 C-143.97621731 147.10243916 -144.89603813 148.02470253 -145.8437323 148.97491328 C-160.78235456 163.95362773 -175.71507995 178.93821117 -190.64655589 193.92404886 C-205.97889762 209.3117323 -221.32078523 224.68985536 -236.67080361 240.05990541 C-246.13958781 249.54178848 -255.60027091 259.03161516 -265.05080921 268.53168456 C-271.51660104 275.030078 -277.99132172 281.51948264 -284.47327494 288.00175543 C-288.21690057 291.74615093 -291.95622514 295.49460487 -295.68484116 299.25395203 C-299.09296842 302.69001279 -302.51224689 306.11453751 -305.94104648 309.5299664 C-307.18407145 310.77226159 -308.4228065 312.01886597 -309.65693813 313.26999648 C-311.32579479 314.96063094 -313.00909049 316.63537548 -314.69715023 318.30680275 C-315.4226923 319.05290496 -315.4226923 319.05290496 -316.16289178 319.81407994 C-317.52813429 321.14682543 -317.52813429 321.14682543 -320 323 C-322.33142811 322.79332483 -322.33142811 322.79332483 -324 322 C-284.57355264 282.52776197 -245.14182824 243.0608023 -205.70303256 203.60090191 C-201.04555458 198.94092255 -196.38812024 194.28089956 -191.73071289 189.62084961 C-190.80351711 188.69312921 -189.87632133 187.76540881 -188.92102871 186.80957567 C-173.9136244 171.79347183 -158.90975791 156.77383784 -143.90719887 141.75289328 C-128.50991755 126.33690036 -113.10883354 110.92471415 -97.7042225 95.51604551 C-88.20103851 86.01011909 -78.70082306 76.5012458 -69.20439903 66.98856609 C-62.68959775 60.46318239 -56.17110206 53.9415043 -49.64971008 47.42270733 C-45.88892938 43.66320594 -42.12977896 39.90211213 -38.37501335 36.1366024 C-34.93264789 32.68445909 -31.48563343 29.23702786 -28.03497366 25.79317587 C-26.79212191 24.55116475 -25.55093766 23.30748208 -24.31166556 22.06189919 C-17.84543314 15.56467692 -11.33620195 9.40568893 -4.13997632 3.71093172 C-1.95470145 2.02852062 -1.95470145 2.02852062 0 0 Z " fill="#F7BC31" transform="translate(2200,711)"/>
<path d="M0 0 C17.22929323 4.80160631 30.40069027 16.89759386 39.06591797 32.25390625 C47.58873392 48.18573575 49.79643438 66.7669775 46 84.5 C39.93019215 103.6975318 28.0449448 119.65084386 10.04296875 129.14453125 C8.69999615 129.81416417 7.35236454 130.4745434 6 131.125 C5.36489502 131.43284424 4.72979004 131.74068848 4.07543945 132.05786133 C0.56134101 133.64594995 -1.34677176 134.15851015 -5 133 C-3.9378125 132.49210937 -2.875625 131.98421875 -1.78125 131.4609375 C5.64613456 127.86095208 12.6688591 124.37187713 19 119 C19.80179688 118.39542969 20.60359375 117.79085937 21.4296875 117.16796875 C34.21933576 106.3803475 41.53669853 88.38897652 43 72 C44.29122998 53.10395151 37.88915448 34.38331022 25.4921875 20.11328125 C18.04165397 12.33373555 9.77554659 6.49146735 0 2 C0 1.34 0 0.68 0 0 Z " fill="#F3B930" transform="translate(2335,906)"/>
<path d="M0 0 C0.66 0.33 1.32 0.66 2 1 C2 1.66 2 2.32 2 3 C0.217871 4.44074715 -1.62660276 5.80510649 -3.5 7.125 C-5.03140625 8.21167969 -5.03140625 8.21167969 -6.59375 9.3203125 C-7.3878125 9.87460937 -8.181875 10.42890625 -9 11 C-9 8 -9 8 -6.75 5.5 C-4.56458892 3.51326265 -2.41145588 1.69695043 0 0 Z " fill="#F1B92E" transform="translate(2215,700)"/>
<path d="M0 0 C-1 3 -1 3 -3.4375 4.75 C-4.7059375 5.36875 -4.7059375 5.36875 -6 6 C-6.66 5.67 -7.32 5.34 -8 5 C-3.16129032 0 -3.16129032 0 0 0 Z " fill="#F6BB30" transform="translate(2227,694)"/>
</svg>
